<svg width="33" height="33" viewBox="0 0 33 33" fill="none" xmlns="http://www.w3.org/2000/svg">
<circle cx="16.5" cy="16.5" r="16.5" fill="black"/>
<path d="M26.2695 19.335H21.0225V18.043H26.2695V19.335ZM20.627 13.2266C20.627 12.2891 20.9082 11.5273 21.4707 10.9414C22.0332 10.3555 22.7656 10.0625 23.668 10.0625C24.5703 10.0625 25.3027 10.3555 25.8652 10.9414C26.4336 11.5215 26.7178 12.3008 26.7178 13.2793V13.8242C26.7178 14.75 26.4395 15.5059 25.8828 16.0918C25.332 16.6777 24.5996 16.9707 23.6855 16.9707C22.7656 16.9707 22.0244 16.6777 21.4619 16.0918C20.9053 15.5 20.627 14.7266 20.627 13.7715V13.2266ZM22.165 13.8242C22.165 14.4043 22.2998 14.8613 22.5693 15.1953C22.8447 15.5234 23.2168 15.6875 23.6855 15.6875C24.1484 15.6875 24.5117 15.5205 24.7754 15.1865C25.0449 14.8525 25.1797 14.3838 25.1797 13.7803V13.2266C25.1797 12.6523 25.042 12.1982 24.7666 11.8643C24.4912 11.5303 24.125 11.3633 23.668 11.3633C23.2168 11.3633 22.8535 11.5303 22.5781 11.8643C22.3027 12.1982 22.165 12.6641 22.165 13.2617V13.8242ZM19.5547 23H16.7598L13.0508 14.6768V23H10.4932V10.2031H13.2881L17.0059 18.5439V10.2031H19.5547V23Z" fill="white"/>
</svg>
